<?xml version="1.0"?><svg version="1.2" baseProfile="tiny-ps" viewBox="0 0 300 300" xmlns="http://www.w3.org/2000/svg" xmlns:xlink="http://www.w3.org/1999/xlink"><title>OFER</title><g><g fill="#ffdf58" transform="matrix(.1 0 0 -.1 0 300)"><path d="M0 1500V0h3000v3000H0V1500z"/></g><g fill="#edc869" transform="matrix(.1 0 0 -.1 0 300)"><path d="M0 1500V0h3000v3000H0V1500zm995 277 40-22 23-45 22-44v-71l-18-34-17-35-37-29-38-30-58-1-59-1-35 19-34 19-25 35-24 35v112l21 35 20 35 40 22 39 23h100l40-23zm455-7v-30h-130v-100h120v-50h-120v-120h-70v330h200v-30zm840-25v-35h-730v70h730v-35zm-430-205v-30h-150v-80h130v-50h-131l3-42 3-43 73-3 72-3v-49h-210v330h210v-30zm345 20 40-9 23-26 22-26v-91l-30-28-31-29 31-49c16-27 30-52 30-56 0-3-15-6-34-6h-35l-33 55-33 55h-55v-110h-60v330h63c34 0 80-5 102-10zm-755-285v-35H720v70h730v-35zm-602 448c-32-20-48-52-48-98v-33l26-31 26-31h100l29 29 29 29v36c0 47-16 79-50 99l-28 17h-29l-28-1-27-16zm1252-268v-55h86l18 13 19 14v26c0 15-6 34-13 42l-12 15h-98v-55z"/></g><g fill="#ca9c8a" transform="matrix(.1 0 0 -.1 0 300)"><path d="M0 1500V0h3000v3000H0V1500zm1000 278c18-13 42-35 53-50l21-28 3-57 4-58-23-40-23-40-45-22-44-23h-82l-44 23-45 22-23 40-23 40 4 58 3 57 21 28c11 15 35 37 53 50l33 22h124l33-22zm450-13v-35h-130v-90h120v-60h-120v-110h-70v330h200v-35zm850-20v-35h-740v70h740v-35zm-440-205v-30h-150v-70h130v-59l-62-3-63-3-3-37-3-38h151v-60h-220v330h220v-30zm380 11 35-18 13-38 13-38-11-32c-6-18-20-41-30-50-26-24-25-29 10-86l30-49h-85l-27 50-28 50h-60v-100h-70v330h175l35-19zm-780-276v-35H720v70h740v-35zm-590 458c-8-3-25-15-37-26l-23-20-6-34-6-33 12-31c7-16 22-36 34-44l20-15h82l20 15c12 8 27 28 34 44l12 31-6 33-6 34-24 22-23 22-34 4c-19 2-41 2-49-2zm1230-278v-55h34c19 0 46 4 60 10l26 10v69l-19 11c-11 5-38 10-60 10h-41v-55z"/></g><g fill="#a067b0" transform="matrix(.1 0 0 -.1 0 300)"><path d="M0 1500V0h3000v3000H0V1500zm1001 278 37-20 21-38 21-38v-109l-22-33c-13-18-36-43-51-54l-28-21H831l-28 21c-15 11-38 36-50 54l-23 33v110l25 42 24 42 33 16c49 22 69 26 112 21l40-5 37-21zm457-10-3-33-67-3-68-3v-79h120v-70h-120v-121l-37 3-38 3-3 168-2 167h221l-3-32zm842-28v-40h-740v80h740v-40zm-440-200v-29l-72-3-73-3-3-32-3-33h142l-3-32-3-33-68-3-68-3 3-32 3-32 75-5 75-5 3-27 3-28h-231v330h220v-30zm386 11 31-19 12-31 13-31-7-36-6-36-25-25-25-25 31-54 31-54h-87l-29 50-29 50h-46v-100h-80v330h185l31-19zm-786-281v-40H720v80h740v-40zm-617 445-21-15-12-34-11-34 7-26 6-26 30-25 30-25h66l30 25 30 25 5 26 5 26-10 34-9 33-22 16-21 15h-82l-21-15zm1261-219c-3-8-4-31-2-52l3-39 42 1 42 1 15 13 16 12v47l-22 15-22 16h-67l-5-14z"/></g><g fill="#7c3bd0" transform="matrix(.1 0 0 -.1 0 300)"><path d="M0 1500V0h3000v3000H0V1500zm973 296c46-17 74-40 95-81l15-30v-110l-24-37-24-37-36-21-37-20H848l-39 22-39 22-26 53-26 53 6 44 7 45 22 33 22 33 45 23 44 22h36c19-1 52-7 73-14zm487-31v-35h-140v-79l63-3 62-3v-60l-62-3-63-3v-119h-80v340h220v-35zm840-25v-40h-740v80h740v-40zm-440-205v-35h-140v-60h130v-70h-130v-70h151l-3-32-3-33-112-3-113-3v341h220v-35zm402 6 33-29v-111l-27-28-27-28 29-48c17-26 30-52 30-58v-10l-42 3-42 3-31 52-30 53h-44l-3-52-3-53-37-3-38-3v341h200l32-29zm-802-266v-45H720v90h740v-45zm-605 443c-11-6-25-19-32-27l-12-16-1-42v-42l24-28 24-28h94l24 28 24 28v34c0 19-5 45-11 58l-11 25-25 11c-31 14-72 14-98-1zm1255-262v-46h90l12 26 12 26-11 16-10 17-47 3-46 3v-45z"/></g><g fill="#5e16eb" transform="matrix(.1 0 0 -.1 0 300)"><path d="M0 1500V0h3000v3000H0V1500zm972 300 36-10 35-39 36-39 6-44 7-44-11-41c-6-22-21-53-33-68l-21-28-41-18-41-19h-76l-36 15c-50 21-72 42-94 90l-19 40v37c0 49 12 78 50 122l32 36 32 9c43 13 94 13 138 1zm486-37-3-38-62-3-63-3v-69h121l-3-37-3-38-57-3-57-3-3-52-3-52-42-3-43-3v341h221l-3-37zm850-20 3-43h-751v90l373-2 372-3 3-42zm-448-203v-40h-140v-60h130v-70h-130v-59l73-3 72-3 3-38 3-38-118 3-118 3-3 160c-1 87 0 165 2 172l5 13h221v-40zm373 24c18-9 40-26 49-38l18-21v-87l-17-29c-10-16-21-29-25-29-15 0-8-23 22-72 17-26 30-50 30-53s-22-5-49-5h-50l-27 50-27 50h-47v-101l-42 3-43 3-3 160c-1 87 0 165 2 172l5 13h172l32-16zm-765-291 3-43H720v90l373-2 372-3 3-42zm-604 448c-12-5-29-20-38-33l-16-22v-67l16-24 16-24 33-11 33-11 36 15 36 15 10 26c6 15 10 39 10 55v29l-22 26-23 26-35 4-35 5-21-9zm1246-266v-45h77l18 20 18 20-11 25-12 25h-90v-45z"/></g></g></svg>